<svg width="567" height="57" viewBox="0 0 567 57" fill="none" xmlns="http://www.w3.org/2000/svg">
<mask id="mask0_719_9085" style="mask-type:alpha" maskUnits="userSpaceOnUse" x="0" y="0" width="567" height="57">
<path d="M0 0.0639648H566.9V56.5728H0V0.0639648Z" fill="white"/>
</mask>
<g mask="url(#mask0_719_9085)">
<path d="M511.1 0.991721H523.6C526.3 5.12445 529 9.17284 531.7 13.3056C534.2 17.1853 536.9 20.9807 539 25.029C541 21.1493 543.5 17.5227 545.9 13.8116C548.7 9.51021 551.5 5.29314 554.3 0.991721H566.7V55.645H555.8V30.5956C555.8 25.029 555.5 19.3782 556.5 13.8116C555.4 16.5106 553.9 19.1251 552.2 21.6554C549.2 26.2098 546.2 30.6799 543.2 35.15H534.6C532.7 32.3668 530.8 29.5835 529 26.7159C526.2 22.4988 523.1 18.3661 521.3 13.7273C522 17.354 522.1 21.065 522 24.6917V55.5607H511V0.991721H511.1V0.991721ZM452.7 31.6077V0.991721H463.7V34.8127C463.7 36.9212 463.7 39.1141 464.4 41.2226C465 42.9938 466.2 44.765 468.1 45.777C470.5 47.2109 473.6 47.5482 476.4 47.4639C479.4 47.4639 482.7 46.9578 485 45.1867C487.1 43.5842 488 41.2226 488.3 38.9454C488.5 36.8369 488.5 34.7283 488.5 32.6198V0.991721H499.4V32.8728C499.4 36.2465 499.6 39.7045 498.8 42.9938C498 46.5361 496 50.0785 492.7 52.44C488.8 55.3076 483.5 56.2354 478.5 56.5728H473.7C469.7 56.3197 465.6 55.7293 462.1 53.9582C458.1 52.1027 455.3 48.729 454.1 45.1023C452.3 40.8009 452.7 36.1621 452.7 31.6077V31.6077ZM405.2 0.991721H443.1V9.76324H416.3V22.8362H442.1V31.6077H416.3V46.7891H443.1V55.5607H405.2V0.991721ZM298.3 0.991721H309.3V36.3308C309.3 39.1141 309.7 42.066 311.8 44.3432C313.6 46.3674 316.6 47.2109 319.5 47.4639C322.5 47.6326 325.8 47.5482 328.5 46.3674C330.7 45.4397 332.3 43.7529 333 41.813C334.1 39.1984 333.9 36.3308 333.9 33.6319V0.991721H344.9V35.5717C344.9 38.2707 344.8 41.0539 344.1 43.6685C343.2 47.2109 341.1 50.5845 337.6 52.8617C333.7 55.4763 328.7 56.4041 323.9 56.6571H319C314.4 56.4041 309.6 55.5607 305.8 53.1991C302.3 51.0906 300.1 47.8012 299.1 44.4276C297.8 40.4635 298.1 36.3308 298.1 32.1981C298.3 21.7397 298.3 11.3657 298.3 0.991721V0.991721ZM230.8 0.991721H243.3C246.5 5.79919 249.6 10.6067 252.8 15.3298C254.9 18.4504 257 21.571 258.7 24.8604C259.4 23.9326 259.8 22.9205 260.4 21.9928C262.4 18.6191 264.7 15.3298 266.8 12.0405C269.2 8.32943 271.7 4.70275 274.1 0.991721H286.6V55.645H275.7V20.5589C275.7 18.3661 276 16.0888 276.3 13.896C275 16.7636 273.5 19.5468 271.6 22.1614C268.7 26.4628 265.8 30.7643 263 35.0657H254.4L245.4 21.6554C244.1 19.7155 242.9 17.6913 241.9 15.5828C241.6 14.9924 241.4 14.3177 241 13.8116C241.5 16.5106 241.7 19.2095 241.7 21.9084V55.5607H230.9C230.8 37.4272 230.8 19.2095 230.8 0.991721V0.991721ZM112.7 0.991721H123.7V23.4266C130.5 16.0888 137.3 8.83548 144 1.49777C144.2 1.24475 144.4 0.90738 144.9 0.991721H158.3C158.2 1.24475 158.1 1.49777 157.9 1.66645C149.8 10.1849 141.7 18.7034 133.5 27.2219C141.9 36.4151 150.3 45.6927 158.8 54.8859C159 55.139 159.1 55.3076 159.2 55.645H145.4C138.1 47.5482 130.9 39.3671 123.7 31.2703C123.6 39.3671 123.7 47.4639 123.7 55.645H112.7V0.991721ZM86.9004 0.991721H97.9004V34.8127C97.9004 37.2586 98.0004 39.7888 97.5004 42.1504C96.8004 46.1144 94.6004 49.9098 90.9004 52.44C87.1004 55.2233 81.9004 56.3197 76.9004 56.5728H72.3004C66.6004 56.3197 60.9004 55.0546 55.9004 52.6931V43.1625C56.4004 43.2468 56.8004 43.4155 57.3004 43.5842C63.3004 46.1988 70.0004 47.8856 76.8004 47.2952C79.5004 47.0422 82.3004 46.2831 84.2004 44.5963C86.2004 42.8251 87.0004 40.2949 87.0004 37.9333C86.9004 25.6194 86.9004 13.3056 86.9004 0.991721ZM55.9004 0.991721H66.9004V34.9813H56.0004C55.9004 23.6796 55.9004 12.2935 55.9004 0.991721ZM10.9004 9.67889V26.8002H19.1004C22.3004 26.6315 25.8004 26.2942 28.4004 24.523C30.6004 23.0892 31.4004 20.6433 31.4004 18.3661C31.5004 16.1732 30.8004 13.7273 28.8004 12.2091C26.7004 10.6067 23.9004 10.0163 21.2004 9.84758C17.7004 9.59455 14.3004 9.67889 10.9004 9.67889V9.67889ZM-0.0996094 0.991721H17.9004C22.4004 0.90738 27.1004 1.24475 31.4004 2.59421C35.4004 3.77499 38.9004 6.22089 40.7004 9.51021C42.9004 13.5586 43.1004 18.1974 42.3004 22.5831C41.5004 26.6315 38.6004 30.3426 34.3004 32.3668C38.1004 40.1262 42.1004 47.8856 45.8004 55.7293H33.9004C30.7004 48.8977 27.5004 41.9817 24.3004 35.0657C19.9004 35.6561 15.4004 35.3187 11.0004 35.403V55.7293H-0.0996094V0.991721ZM375.3 0.0639648H379.6C384.2 0.401331 388.9 1.1604 392.9 3.26894V12.7995C391 11.9561 389.2 11.1127 387.1 10.5223C382.8 9.25719 378.1 8.6668 373.6 9.25719C371.5 9.59455 369.4 10.1006 367.8 11.3657C364.8 13.6429 364.8 18.2817 368.1 20.3903C371 22.3301 374.7 23.0892 378.1 24.1856C382.8 25.5351 387.6 27.0532 390.9 30.2582C394.2 33.3789 395.1 37.7646 394.6 41.7287C394.2 45.6927 392 49.4881 388.4 52.0183C384.2 54.9703 378.8 56.3197 373.4 56.6571H369.1C363.9 56.3197 358.5 55.3076 354 52.9461V43.4155C359.4 46.0301 365.5 47.8012 371.8 47.7169C374.9 47.6326 378.1 47.1265 380.6 45.4397C383.6 43.4155 384.3 39.1984 381.8 36.6682C379.9 34.8127 377 33.9692 374.3 33.1258C369.8 31.7764 365.1 30.6799 361.1 28.4027C358 26.6315 355.6 24.0169 354.8 20.8963C353.8 17.4383 353.9 13.6429 355.4 10.2693C356.6 7.57036 358.9 5.2088 361.8 3.60631C365.8 1.32909 370.6 0.316989 375.3 0.0639648V0.0639648ZM184.6 0.0639648H188.9C193.5 0.401331 198.2 1.24475 202.2 3.26894V12.7152C201.1 12.2935 200 11.7031 198.9 11.2814C194.1 9.42587 188.7 8.49811 183.4 9.0885C181 9.34153 178.6 10.0163 176.9 11.4501C175 13.0526 174.5 15.5828 175.3 17.6913C176 19.5468 178 20.812 180 21.571C185.7 23.8483 192.1 24.6917 197.3 27.8123C200.4 29.5835 202.7 32.2824 203.5 35.3187C204.7 39.7045 204.2 44.6806 201.2 48.5603C198.8 51.7653 194.9 53.9582 190.8 55.139C188.2 55.898 185.5 56.2354 182.8 56.4884H178.5C173.2 56.1511 167.9 55.139 163.3 52.7774V43.2468C164.8 43.8372 166.2 44.5963 167.7 45.1023C172.4 46.7891 177.5 47.8856 182.6 47.4639C185.4 47.2109 188.3 46.6205 190.3 44.9336C192.6 43.1625 193.2 40.1262 192 37.7646C191.1 35.9934 189 34.897 187 34.1379C184.1 33.0415 181.1 32.2824 178.1 31.3547C173.9 30.0895 169.5 28.4027 166.7 25.2821C163.8 22.2458 163.1 18.113 163.5 14.3177C163.9 10.7753 165.7 7.40167 168.8 4.95577C173.1 1.83514 179 0.401331 184.6 0.0639648V0.0639648Z" fill="white"/>
</g>
</svg>
